<svg xmlns="http://www.w3.org/2000/svg"  viewBox="0 0 64 64" width="64px" height="64px"><linearGradient id="BBV33NOaYjqbs9E4hwinoa" x1="32" x2="32" y1="5.085" y2="58.502" gradientUnits="userSpaceOnUse"><stop offset="0" stop-color="#1a6dff"/><stop offset="1" stop-color="#c822ff"/></linearGradient><rect width="2" height="8" x="31" y="51" fill="url(#BBV33NOaYjqbs9E4hwinoa)"/><linearGradient id="BBV33NOaYjqbs9E4hwinob" x1="31.998" x2="31.998" y1="5.085" y2="58.502" gradientUnits="userSpaceOnUse"><stop offset="0" stop-color="#1a6dff"/><stop offset="1" stop-color="#c822ff"/></linearGradient><path fill="url(#BBV33NOaYjqbs9E4hwinob)" d="M56.602,42.637L34.621,7.515C34.088,6.565,33.108,6,32,6c-1.1,0-2.072,0.557-2.607,1.491 L7.374,42.677c-0.562,1-0.485,2.192,0.199,3.114c0.716,0.963,1.896,1.396,3.085,1.134l21.111-4.696c0.151-0.035,0.31-0.035,0.46,0 l21.111,4.696c0.23,0.051,0.46,0.076,0.686,0.075c0.942,0,1.823-0.433,2.399-1.209C57.111,44.869,57.187,43.677,56.602,42.637z M10.224,44.972c-0.607,0.139-0.955-0.25-1.045-0.373c-0.101-0.136-0.309-0.5-0.085-0.901L31,8.693V40.35L10.224,44.972z M54.821,44.599c-0.091,0.122-0.438,0.512-1.045,0.373L33,40.35V8.693l21.883,34.965C55.13,44.099,54.922,44.463,54.821,44.599z"/><linearGradient id="BBV33NOaYjqbs9E4hwinoc" x1="26" x2="26" y1="5.085" y2="58.502" gradientUnits="userSpaceOnUse"><stop offset="0" stop-color="#1a6dff"/><stop offset="1" stop-color="#c822ff"/></linearGradient><rect width="2" height="6" x="25" y="49" fill="url(#BBV33NOaYjqbs9E4hwinoc)"/><linearGradient id="BBV33NOaYjqbs9E4hwinod" x1="38" x2="38" y1="5.085" y2="58.502" gradientUnits="userSpaceOnUse"><stop offset="0" stop-color="#1a6dff"/><stop offset="1" stop-color="#c822ff"/></linearGradient><rect width="2" height="6" x="37" y="49" fill="url(#BBV33NOaYjqbs9E4hwinod)"/><linearGradient id="BBV33NOaYjqbs9E4hwinoe" x1="44" x2="44" y1="5.085" y2="58.502" gradientUnits="userSpaceOnUse"><stop offset="0" stop-color="#1a6dff"/><stop offset="1" stop-color="#c822ff"/></linearGradient><rect width="2" height="6" x="43" y="47" fill="url(#BBV33NOaYjqbs9E4hwinoe)"/><linearGradient id="BBV33NOaYjqbs9E4hwinof" x1="20" x2="20" y1="5.085" y2="58.502" gradientUnits="userSpaceOnUse"><stop offset="0" stop-color="#1a6dff"/><stop offset="1" stop-color="#c822ff"/></linearGradient><rect width="2" height="6" x="19" y="47" fill="url(#BBV33NOaYjqbs9E4hwinof)"/><linearGradient id="BBV33NOaYjqbs9E4hwinog" x1="42.057" x2="42.057" y1="19.255" y2="39.815" gradientUnits="userSpaceOnUse"><stop offset="0" stop-color="#6dc7ff"/><stop offset="1" stop-color="#e6abff"/></linearGradient><path fill="url(#BBV33NOaYjqbs9E4hwinog)" d="M35,19.285v18.036c0,0.234,0.163,0.437,0.391,0.488l13.113,2.917	c0.433,0.096,0.768-0.377,0.532-0.753L35.924,19.02C35.657,18.594,35,18.783,35,19.285z"/><linearGradient id="BBV33NOaYjqbs9E4hwinoh" x1="21.943" x2="21.943" y1="19.255" y2="39.815" gradientUnits="userSpaceOnUse"><stop offset="0" stop-color="#6dc7ff"/><stop offset="1" stop-color="#e6abff"/></linearGradient><path fill="url(#BBV33NOaYjqbs9E4hwinoh)" d="M28.076,19.02L14.963,39.973c-0.235,0.376,0.099,0.85,0.532,0.753l13.113-2.917	C28.837,37.759,29,37.556,29,37.321V19.285C29,18.783,28.343,18.594,28.076,19.02z"/></svg>